<svg width="100" height="100" viewBox="0 0 100 100" fill="none" xmlns="http://www.w3.org/2000/svg">
<g clip-path="url(#clip0_44_34)">
<rect width="100" height="100" fill="#CBC6B0"/>
<rect x="3" y="-2" width="2" height="100" fill="#C6C1AB"/>
<rect x="8" y="-2" width="2" height="100" fill="#C6C1AB"/>
<rect x="13" y="-2" width="2" height="100" fill="#C6C1AB"/>
<rect x="18" y="-2" width="2" height="100" fill="#C6C1AB"/>
<rect x="23" y="-2" width="2" height="100" fill="#C6C1AB"/>
<rect x="28" y="-2" width="2" height="100" fill="#C6C1AB"/>
<rect x="33" y="-2" width="2" height="100" fill="#C6C1AB"/>
<rect x="38" y="-2" width="2" height="100" fill="#C6C1AB"/>
<rect x="43" y="-2" width="2" height="100" fill="#C6C1AB"/>
<rect x="48" y="-2" width="2" height="100" fill="#C6C1AB"/>
<rect x="53" y="-2" width="2" height="100" fill="#C6C1AB"/>
<rect x="58" y="-2" width="2" height="100" fill="#C6C1AB"/>
<rect x="63" y="-2" width="2" height="100" fill="#C6C1AB"/>
<rect x="68" y="-2" width="2" height="100" fill="#C6C1AB"/>
<rect x="73" y="-2" width="2" height="100" fill="#C6C1AB"/>
<rect x="78" y="-2" width="2" height="100" fill="#C6C1AB"/>
<rect x="83" y="-2" width="2" height="100" fill="#C6C1AB"/>
<rect x="88" y="-2" width="2" height="100" fill="#C6C1AB"/>
<rect x="93" y="-2" width="2" height="100" fill="#C6C1AB"/>
<rect x="98" y="-2" width="2" height="100" fill="#C6C1AB"/>
<rect x="-2" y="100" width="2" height="102" transform="rotate(-90 -2 100)" fill="#C6C1AB"/>
<rect x="-2" y="95" width="2" height="100" transform="rotate(-90 -2 95)" fill="#C6C1AB"/>
<rect x="-2" y="90" width="2" height="100" transform="rotate(-90 -2 90)" fill="#C6C1AB"/>
<rect x="-2" y="85" width="2" height="100" transform="rotate(-90 -2 85)" fill="#C6C1AB"/>
<rect x="-2" y="80" width="2" height="100" transform="rotate(-90 -2 80)" fill="#C6C1AB"/>
<rect x="-2" y="75" width="2" height="100" transform="rotate(-90 -2 75)" fill="#C6C1AB"/>
<rect x="-2" y="70" width="2" height="100" transform="rotate(-90 -2 70)" fill="#C6C1AB"/>
<rect x="-2" y="65" width="2" height="100" transform="rotate(-90 -2 65)" fill="#C6C1AB"/>
<rect x="-2" y="60" width="2" height="100" transform="rotate(-90 -2 60)" fill="#C6C1AB"/>
<rect x="-2" y="55" width="2" height="100" transform="rotate(-90 -2 55)" fill="#C6C1AB"/>
<rect x="-2" y="50" width="2" height="100" transform="rotate(-90 -2 50)" fill="#C6C1AB"/>
<rect x="-2" y="45" width="2" height="100" transform="rotate(-90 -2 45)" fill="#C6C1AB"/>
<rect x="-2" y="40" width="2" height="100" transform="rotate(-90 -2 40)" fill="#C6C1AB"/>
<rect x="-2" y="35" width="2" height="100" transform="rotate(-90 -2 35)" fill="#C6C1AB"/>
<rect x="-2" y="30" width="2" height="100" transform="rotate(-90 -2 30)" fill="#C6C1AB"/>
<rect x="-2" y="25" width="2" height="100" transform="rotate(-90 -2 25)" fill="#C6C1AB"/>
<rect x="-2" y="20" width="2" height="100" transform="rotate(-90 -2 20)" fill="#C6C1AB"/>
<rect x="-2" y="15" width="2" height="100" transform="rotate(-90 -2 15)" fill="#C6C1AB"/>
<rect x="-2" y="10" width="2" height="100" transform="rotate(-90 -2 10)" fill="#C6C1AB"/>
<rect x="-2" y="5" width="2" height="100" transform="rotate(-90 -2 5)" fill="#C6C1AB"/>
</g>
<defs>
<clipPath id="clip0_44_34">
<rect width="100" height="100" fill="white"/>
</clipPath>
</defs>
</svg>
